<?xml version="1.0" encoding="UTF-8" standalone="no"?>
<svg
   viewBox="0 0 20 20"
   version="1.1"
   id="svg143"
   sodipodi:docname="translation.svg"
   inkscape:version="1.2.2 (b0a8486541, 2022-12-01)"
   xmlns:inkscape="http://www.inkscape.org/namespaces/inkscape"
   xmlns:sodipodi="http://sodipodi.sourceforge.net/DTD/sodipodi-0.dtd"
   xmlns="http://www.w3.org/2000/svg"
   xmlns:svg="http://www.w3.org/2000/svg">
  <defs
     id="defs147" />
  <sodipodi:namedview
     id="namedview145"
     pagecolor="#ffffff"
     bordercolor="#666666"
     borderopacity="1.0"
     inkscape:showpageshadow="2"
     inkscape:pageopacity="0.0"
     inkscape:pagecheckerboard="0"
     inkscape:deskcolor="#d1d1d1"
     showgrid="false"
     inkscape:zoom="11.8"
     inkscape:cx="-15.169492"
     inkscape:cy="17.669492"
     inkscape:window-width="1920"
     inkscape:window-height="1011"
     inkscape:window-x="0"
     inkscape:window-y="0"
     inkscape:window-maximized="1"
     inkscape:current-layer="svg143" />
  <rect
     x="0"
     fill="none"
     width="20"
     height="20"
     id="rect137" />
  <g
     id="g141">
    <path
       d="M11 7H9.49c-.63 0-1.25.3-1.59.7L7 5H4.13l-2.39 7h1.69l.74-2H7v4H2c-1.1 0-2-.9-2-2V5c0-1.1.9-2 2-2h7c1.1 0 2 .9 2 2v2zM6.51 9H4.49l1-2.93zM10 8h7c1.1 0 2 .9 2 2v7c0 1.1-.9 2-2 2h-7c-1.1 0-2-.9-2-2v-7c0-1.1.9-2 2-2zm7.25 5v-1.08h-3.17V9.75h-1.16v2.17H9.75V13h1.28c.11.85.56 1.85 1.28 2.62-.87.36-1.89.62-2.31.62-.01.02.22.97.2 1.46.84 0 2.21-.5 3.28-1.15 1.09.65 2.48 1.15 3.34 1.15-.02-.49.2-1.44.2-1.46-.43 0-1.49-.27-2.38-.63.7-.77 1.14-1.77 1.25-2.61h1.36zm-3.81 1.93c-.5-.46-.85-1.13-1.01-1.93h2.09c-.17.8-.51 1.47-1 1.93l-.04.03s-.03-.02-.04-.03z"
       id="path139" />
  </g>
  <g
     id="g6"
     transform="matrix(0.49483711,0,0,0.49483711,8.6842548,-0.80509127)">
    <path
       d="M 12,5 H 7 V 2 L 1,6 7,10 V 7 h 5 c 2.2,0 4,1.8 4,4 0,2.2 -1.8,4 -4,4 H 7 v 2 h 5 c 3.3,0 6,-2.7 6,-6 0,-3.3 -2.7,-6 -6,-6 z"
       id="path4" />
  </g>
</svg>
